<svg xmlns="http://www.w3.org/2000/svg" viewBox="0 0 32 32" role="img" aria-label="USDT">
  <circle cx="16" cy="16" r="16" fill="#26A17B"/>
  <path fill="#fff" d="M17.9 17.4v-.01c-.11.01-.68.04-1.94.04-1.01 0-1.72-.03-1.97-.04v.01c-3.89-.17-6.8-.85-6.8-1.66s2.91-1.49 6.8-1.66v2.65c.25.02.98.06 1.99.06 1.21 0 1.81-.05 1.92-.06v-2.65c3.88.17 6.78.85 6.78 1.66s-2.9 1.49-6.78 1.66m0-3.6v-2.37h5.42V7.83H8.68v3.61h5.42v2.37c-4.4.2-7.71 1.07-7.71 2.12s3.31 1.92 7.71 2.12v7.6h3.92v-7.6c4.39-.2 7.7-1.07 7.7-2.12s-3.31-1.92-7.7-2.12"/>
</svg>
